<svg xmlns="http://www.w3.org/2000/svg" viewBox="0 0 16 16" fill="none">
  <path fill="currentColor" d="M15.832 3.101c-.17-.083-.242.075-.341.156-.034.026-.063.06-.092.09-.247.265-.537.439-.915.418-.553-.031-1.025.143-1.442.565-.088-.52-.383-.832-.832-1.032-.234-.104-.472-.207-.636-.433-.114-.16-.146-.34-.203-.516-.037-.107-.073-.216-.196-.234-.133-.02-.185.091-.237.184-.209.382-.29.802-.282 1.227.019.957.423 1.72 1.226 2.262.091.062.115.125.086.215-.055.187-.12.369-.177.556-.037.119-.092.145-.22.093a3.683 3.683 0 0 1-1.157-.786c-.571-.553-1.087-1.162-1.731-1.64a7.572 7.572 0 0 0-.46-.313c-.656-.638.087-1.162.259-1.224.18-.065.062-.288-.52-.286-.58.003-1.113.197-1.79.457-.1.039-.204.067-.31.09a6.398 6.398 0 0 0-1.922-.067c-1.257.14-2.261.734-2.999 1.748-.887 1.22-1.095 2.604-.84 4.05.269 1.522 1.046 2.782 2.24 3.768 1.239 1.022 2.665 1.523 4.292 1.427.988-.057 2.089-.19 3.33-1.24.313.155.641.218 1.186.264.42.04.824-.02 1.137-.085.49-.104.456-.558.279-.64-1.437-.67-1.121-.398-1.408-.618.73-.864 1.83-1.761 2.26-4.67.034-.23.006-.375 0-.562-.002-.114.024-.158.155-.171.36-.042.709-.14 1.03-.317.93-.508 1.306-1.343 1.394-2.344.013-.153-.002-.312-.164-.392Zm-8.112 9.01c-1.392-1.094-2.067-1.454-2.346-1.439-.261.016-.214.314-.157.509.06.192.138.324.248.493.076.111.128.277-.076.402-.448.277-1.228-.094-1.264-.112-.908-.534-1.666-1.24-2.201-2.205a6.732 6.732 0 0 1-.866-2.988c-.013-.257.063-.347.318-.394a3.13 3.13 0 0 1 1.02-.026c1.421.208 2.63.843 3.645 1.85.579.573 1.017 1.257 1.468 1.927.48.71.996 1.387 1.653 1.942.232.195.417.343.595.452-.535.06-1.426.072-2.037-.41Zm.668-4.292a.204.204 0 0 1 .276-.192c.029.01.055.026.076.05a.201.201 0 0 1 .057.142.204.204 0 0 1-.206.205.202.202 0 0 1-.203-.205Zm2.073 1.064a1.207 1.207 0 0 1-.394.106.83.83 0 0 1-.532-.169c-.182-.153-.313-.238-.367-.505-.024-.115-.01-.291.01-.392.047-.218-.005-.358-.16-.485-.124-.104-.283-.132-.458-.132a.373.373 0 0 1-.17-.052c-.073-.037-.132-.127-.075-.239a.756.756 0 0 1 .128-.14c.237-.135.51-.09.764.01.234.096.412.273.667.522.26.3.308.384.456.61.118.176.225.357.298.565.044.13-.013.236-.167.3Z"/>
</svg>
