<svg xmlns="http://www.w3.org/2000/svg" viewBox="0 0 16 16" fill="none">
  <path fill="currentColor" d="M5.79395 0.910599C4.27755 1.43666 2.9698 2.43514 2.06281 3.75938C1.15581 5.08362 0.697362 6.66382 0.75481 8.26787C0.812258 9.87191 1.38257 11.4153 2.38198 12.6712C3.38138 13.9272 4.75721 14.8296 6.30736 15.2458C7.5641 15.5701 8.8808 15.5843 10.1443 15.2873C11.2888 15.0302 12.347 14.4803 13.2152 13.6913C14.1188 12.8451 14.7747 11.7687 15.1123 10.5777C15.4792 9.28246 15.5445 7.92042 15.3032 6.59606H8.24597V9.52357H12.3331C12.2514 9.99049 12.0763 10.4361 11.8184 10.8338C11.5605 11.2315 11.225 11.5731 10.832 11.8381C10.3329 12.1683 9.77033 12.3905 9.18029 12.4902C8.58857 12.6003 7.98162 12.6003 7.3899 12.4902C6.79012 12.3663 6.22275 12.1188 5.724 11.7634C4.92265 11.1961 4.32094 10.3902 4.00474 9.46073C3.68329 8.5138 3.68329 7.48726 4.00474 6.54033C4.22982 5.87659 4.6019 5.27226 5.09321 4.77244C5.65546 4.18996 6.36727 3.7736 7.15057 3.56904C7.93387 3.36448 8.75838 3.37963 9.53363 3.61282C10.1393 3.79865 10.6931 4.12348 11.1509 4.56139C11.6118 4.10292 12.0718 3.64326 12.5311 3.18241C12.7682 2.9346 13.0267 2.69864 13.2603 2.4449C12.5613 1.79457 11.741 1.28849 10.8462 0.955656C9.2167 0.363977 7.43374 0.348076 5.79395 0.910599Z"/>
</svg>
