<svg xmlns="http://www.w3.org/2000/svg" viewBox="0 0 16 16" fill="none">
  <path fill="currentColor" d="M2.12 9.57c0 .573.126 1.013.29 1.279a.989.989 0 0 0 .865.496c.422 0 .809-.105 1.553-1.135.597-.826 1.3-1.985 1.773-2.712l.802-1.23c.556-.855 1.2-1.806 1.94-2.45C9.944 3.292 10.594 3 11.25 3c1.1 0 2.146.637 2.947 1.831.877 1.309 1.303 2.956 1.303 4.657 0 1.01-.2 1.754-.538 2.34-.328.568-.966 1.135-2.04 1.135v-1.618c.92 0 1.149-.845 1.149-1.812 0-1.378-.322-2.908-1.03-4-.502-.776-1.153-1.25-1.869-1.25-.775 0-1.398.585-2.099 1.627-.372.553-.754 1.228-1.184 1.989l-.472.837c-.95 1.683-1.19 2.066-1.665 2.7-.832 1.107-1.542 1.527-2.477 1.527-1.11 0-1.812-.48-2.246-1.204C.674 11.169.5 10.395.5 9.513l1.62.057Z"/>
  <path fill="currentColor" d="M1.778 4.946C2.52 3.8 3.592 3 4.822 3c.712 0 1.42.21 2.159.814.808.66 1.67 1.747 2.745 3.537l.386.643c.93 1.55 1.46 2.348 1.77 2.724.398.483.677.627 1.04.627.92 0 1.149-.845 1.149-1.812l1.429-.045c0 1.01-.2 1.754-.538 2.34-.328.568-.966 1.135-2.04 1.135-.668 0-1.26-.145-1.914-.762-.502-.474-1.09-1.315-1.543-2.071L8.12 7.882c-.675-1.127-1.294-1.968-1.652-2.349-.386-.41-.881-.904-1.672-.904-.64 0-1.184.45-1.639 1.136l-1.38-.82Z"/>
  <path fill="currentColor" d="M4.796 4.629c-.64 0-1.184.45-1.639 1.136-.643.97-1.037 2.417-1.037 3.805 0 .573.126 1.013.29 1.279l-1.381.91C.674 11.169.5 10.395.5 9.513c0-1.605.44-3.276 1.278-4.567C2.52 3.8 3.592 3 4.822 3l-.026 1.629Z"/>
</svg>
