<svg xmlns="http://www.w3.org/2000/svg" viewBox="0 0 16 16" fill="none">
  <path fill="currentColor" d="M8.01 1H8.115l.04.001.032.001.04.002h.027l.044.002.027.001.035.002.032.001.05.003.062.004.084.006.051.005.026.002.045.005.048.004.027.003.06.007.029.004.063.008.047.006.024.003.038.006.121.019.04.007.039.006.082.015.053.01.064.014.027.005.044.01.024.006.036.007.025.006.037.009.029.007.041.01.056.014.066.017.066.018.066.018.029.009.04.012.046.014.043.013.029.01.029.009.044.014.058.02.06.02.028.01.037.014.054.02.064.024.068.026.058.023.028.012.035.014.024.01.036.016.024.01.033.015.064.028.059.027.043.02.043.02.035.017.054.027.053.026.06.03.03.017.03.015.026.014.035.02.024.012.03.017.052.03.061.034.051.03.033.02.031.019.056.034.052.032.057.036.02.014.038.024.05.033.023.016.036.024.036.025.013.01.094.067.049.035.037.028.033.025.05.038.048.037.024.017.029.024.05.04.046.039.05.04c.415.35.789.75 1.113 1.186L5.213 1.58l.036-.016.038-.016.047-.02.05-.02c.066-.027.133-.053.2-.077l.055-.02.055-.02.049-.017.056-.018c.05-.018.102-.034.154-.05l.053-.015.05-.015.06-.017.049-.014.058-.015.05-.014.053-.013.053-.013.055-.013.053-.012.057-.012.053-.012.056-.01.053-.01.059-.011.053-.01.057-.01.053-.008.057-.008.054-.008.06-.008.052-.007.062-.007.052-.005.061-.006c.055-.006.109-.01.164-.014l.061-.005.053-.003.064-.003.054-.003.059-.002.056-.001L7.895 1 8.01 1Z"/>
</svg>
