<svg xmlns="http://www.w3.org/2000/svg" viewBox="0 0 16 16" fill="none">
  <path fill="currentColor" d="M14.077 6.73a3.447 3.447 0 0 0-.304-2.865 3.593 3.593 0 0 0-3.85-1.692A3.557 3.557 0 0 0 7.257 1a3.571 3.571 0 0 0-3.41 2.442 3.534 3.534 0 0 0-2.364 1.692 3.492 3.492 0 0 0 .44 4.136 3.447 3.447 0 0 0 .303 2.865 3.593 3.593 0 0 0 3.85 1.692A3.554 3.554 0 0 0 8.744 15a3.571 3.571 0 0 0 3.411-2.444 3.533 3.533 0 0 0 2.364-1.692 3.492 3.492 0 0 0-.44-4.135l-.001.001Zm-5.333 7.355a2.671 2.671 0 0 1-1.702-.607c.021-.011.059-.032.083-.047l2.826-1.61a.452.452 0 0 0 .232-.397v-3.93l1.194.68a.041.041 0 0 1 .023.033v3.254c-.002 1.448-1.19 2.621-2.656 2.624ZM3.03 11.677a2.583 2.583 0 0 1-.317-1.757l.084.049 2.825 1.61c.143.083.32.083.464 0l3.45-1.965v1.36a.043.043 0 0 1-.017.037l-2.856 1.627c-1.272.723-2.897.293-3.632-.96Zm-.743-6.085c.31-.532.8-.939 1.383-1.15V7.758c-.002.164.087.316.231.397l3.45 1.965-1.195.68a.043.043 0 0 1-.04.004L3.26 9.175a2.608 2.608 0 0 1-.973-3.582Zm9.81 2.253L8.648 5.88l1.195-.68a.043.043 0 0 1 .04-.004l2.857 1.627a2.606 2.606 0 0 1 .972 3.585c-.31.531-.8.938-1.383 1.15V8.241a.452.452 0 0 0-.23-.396h-.001Zm1.188-1.765a4.119 4.119 0 0 0-.083-.05l-2.826-1.61a.465.465 0 0 0-.464 0l-3.45 1.966v-1.36c0-.015.007-.028.018-.037l2.856-1.626c1.272-.724 2.898-.293 3.631.963.31.53.422 1.15.317 1.754h.001ZM5.815 8.505l-1.195-.68a.041.041 0 0 1-.023-.033V4.538c.001-1.45 1.192-2.624 2.661-2.623a2.68 2.68 0 0 1 1.7.608 1.987 1.987 0 0 0-.084.046L6.05 4.18a.451.451 0 0 0-.232.397l-.002 3.928v.001Zm.648-1.38L8 6.25l1.536.875v1.75L8 9.75l-1.537-.875v-1.75Z"/>
</svg>
