<svg xmlns="http://www.w3.org/2000/svg" viewBox="0 0 16 16" fill="none">
  <path fill="currentColor" fill-rule="evenodd" d="M8.5.188V4.03l3.003-2.92.848-.826v4.43h1.608v6.558h-1.608V15.745l-.855-.861L8.5 11.866v3.947h-1v-3.947l-2.996 3.018-.855.86v-4.471h-1.61V4.715h1.61V.285l.848.825L7.5 4.031V.188h1Zm.205 10.464 2.646 2.666v-2.514a.451.451 0 0 1 0-.062V9.333l-2.85-2.897v4.008l.206.206-.002.002Zm.488-4.937 3.014 3.063.144.146v1.349h.608V5.715H9.193Zm2.158-3.062v2.062h-2.12l2.12-2.062Zm-6.702 0 2.12 2.062h-2.12V2.653Zm-1 3.062h-.61v4.558h.61V8.924l.143-.146 3.015-3.063H3.649Zm3.851.72v4.011L4.65 13.318V9.334L7.5 6.436Z" clip-rule="evenodd"/>
</svg>
