<svg xmlns="http://www.w3.org/2000/svg" viewBox="0 0 16 16" fill="none">
  <path fill="currentColor" fill-rule="evenodd" d="M10.213 6.55c.03 0 .039.016.023.039l-.533.933-1.662 2.924c0 .015-.015.015-.031.015s-.024 0-.031-.015L5.776 6.605c-.016-.024 0-.032.015-.032h.142l4.287-.015-.008-.008ZM6.207 1.439c-.016 0-.024 0-.031.016L4.349 4.653c-.016.031-.047.047-.086.047H2.437c-.04 0-.048.016-.024.047l3.7 6.475c.016.023.008.039-.024.039H4.31a.134.134 0 0 0-.125.086l-.84 1.474c-.03.047-.015.078.048.078h3.645c.031 0 .055.016.063.047l.893 1.568c.032.055.055.055.086 0l3.19-5.581.502-.878c0-.016.016-.016.032-.016.015 0 .023 0 .031.016l.91 1.615c.015.023.039.039.07.039l1.764-.016c.008 0 .015 0 .023-.016v-.023l-1.85-3.245a.059.059 0 0 1 0-.07l.188-.322.714-1.262c.015-.024 0-.04-.024-.04H6.238c-.039 0-.047-.015-.023-.046l.917-1.6a.059.059 0 0 0 0-.07l-.87-1.529c0-.015-.016-.023-.032-.023l-.023-.008Zm2.187-.25c.25.438.502.877.745 1.324.023.04.055.055.102.055h3.535c.11 0 .204.07.282.211l.925 1.639c.118.211.157.305.016.533-.165.274-.33.548-.486.83l-.236.424c-.07.125-.14.18-.023.33l1.693 2.954c.11.188.07.314-.023.494-.283.502-.565.996-.855 1.49-.102.172-.227.235-.43.235-.495-.008-.989 0-1.482.008-.024 0-.04.015-.055.03a379.75 379.75 0 0 1-1.725 3.019c-.11.188-.243.235-.462.235h-1.92a.321.321 0 0 1-.299-.172l-.854-1.482c-.008-.024-.031-.031-.055-.031h-3.26c-.181.015-.354 0-.51-.055l-1.02-1.764a.34.34 0 0 1 0-.345l.769-1.348a.12.12 0 0 0 0-.126c-.4-.697-.8-1.387-1.192-2.085l-.501-.885c-.102-.196-.11-.314.062-.612.298-.517.588-1.035.886-1.552a.382.382 0 0 1 .368-.212h1.654a.082.082 0 0 0 .071-.039l1.787-3.12a.297.297 0 0 1 .267-.156h1.01L7.83 1c.219 0 .462.024.572.22l-.008-.032Z" clip-rule="evenodd"/>
</svg>
